<svg xmlns="http://www.w3.org/2000/svg" width="16.001" height="15.999" viewBox="0 0 16.001 15.999">
  <g id="upload-file" transform="translate(16.001) rotate(90)">
    <path id="Path_2053" data-name="Path 2053" d="M5,4H7v8.5a.5.5,0,0,0,.5.5h1a.5.5,0,0,0,.5-.5V4h2a.5.5,0,0,0,.354-.854l-3-3a.5.5,0,0,0-.708,0l-3,3A.5.5,0,0,0,5,4Z" transform="translate(0 0.001)" fill="red"/>
    <path id="Path_2054" data-name="Path 2054" d="M14.992,6.876A1,1,0,0,0,14,6H11V8h2.117l.75,6H2.133l.75-6H5V6H2a1,1,0,0,0-.992.876l-1,8A1,1,0,0,0,1,16H15a1,1,0,0,0,.992-1.124Z" transform="translate(0 0.001)" fill="red"/>
  </g>
</svg>
