<svg xmlns="http://www.w3.org/2000/svg" width="14.004" height="14" viewBox="0 0 14.004 14">
  <g id="phone-call" transform="translate(47.001 -91)">
    <path id="Path_2052" data-name="Path 2052" d="M13.167,11.021,10.45,9.814a1.4,1.4,0,0,0-1.662.4l-.783.979A10.7,10.7,0,0,1,4.8,8l.979-.783a1.4,1.4,0,0,0,.4-1.661l-1.2-2.724a1.4,1.4,0,0,0-1.632-.787l-2.3.6A1.4,1.4,0,0,0,.014,4.2,13.911,13.911,0,0,0,11.806,15.986a1.4,1.4,0,0,0,1.552-1.037l.6-2.3A1.394,1.394,0,0,0,13.167,11.021Z" transform="translate(-47 89)" fill="#212121"/>
  </g>
</svg>
