<svg width="17" height="21" viewBox="0 0 17 21" fill="none" xmlns="http://www.w3.org/2000/svg">
<circle cx="8.57897" cy="6.27803" r="4.77803" stroke="#0C1A30" stroke-width="1.5" stroke-linecap="round" stroke-linejoin="round"/>
<path fill-rule="evenodd" clip-rule="evenodd" d="M1.00002 16.7016C0.998732 16.3657 1.07385 16.0339 1.2197 15.7313C1.67736 14.816 2.96798 14.3308 4.03892 14.1112C4.81128 13.9463 5.59431 13.8362 6.38217 13.7816C7.84084 13.6535 9.30793 13.6535 10.7666 13.7816C11.5544 13.8369 12.3374 13.947 13.1099 14.1112C14.1808 14.3308 15.4714 14.7702 15.9291 15.7313C16.2224 16.3481 16.2224 17.0642 15.9291 17.681C15.4714 18.6421 14.1808 19.0814 13.1099 19.2919C12.3384 19.4636 11.5551 19.5768 10.7666 19.6306C9.57937 19.7313 8.38659 19.7496 7.19681 19.6855C6.92221 19.6855 6.65677 19.6855 6.38217 19.6306C5.59663 19.5775 4.81632 19.4642 4.04807 19.2919C2.96798 19.0814 1.68652 18.6421 1.2197 17.681C1.0746 17.3749 0.999552 17.0403 1.00002 16.7016Z" stroke="#0C1A30" stroke-width="1.5" stroke-linecap="round" stroke-linejoin="round"/>
</svg>
