<svg width="23" height="23" viewBox="0 0 23 23" fill="none" xmlns="http://www.w3.org/2000/svg">
<rect x="7" y="-6.10352e-05" width="16" height="16" rx="8" fill="#EFF5FB"/>
<path fill-rule="evenodd" clip-rule="evenodd" d="M6.48626 21.5H14.8341C17.9004 21.5 20.2528 20.3925 19.5847 15.9348L18.8066 9.89363C18.3947 7.66937 16.976 6.81812 15.7311 6.81812H5.55262C4.28946 6.81812 2.95308 7.73345 2.4771 9.89363L1.69907 15.9348C1.13157 19.8891 3.4199 21.5 6.48626 21.5Z" stroke="#3669C9" stroke-width="2" stroke-linecap="round" stroke-linejoin="round"/>
<path d="M6.34896 6.59842C6.34896 4.21235 8.28325 2.27805 10.6693 2.27805V2.27805C11.8183 2.27319 12.9219 2.72622 13.7361 3.53697C14.5503 4.34772 15.008 5.44941 15.008 6.59842V6.59842" stroke="#3669C9" stroke-width="2" stroke-linecap="round" stroke-linejoin="round"/>
<path d="M7.70365 11.1018H7.74942" stroke="#3669C9" stroke-width="2" stroke-linecap="round" stroke-linejoin="round"/>
<path d="M13.5343 11.1018H13.5801" stroke="#3669C9" stroke-width="2" stroke-linecap="round" stroke-linejoin="round"/>
</svg>
