<svg width="4" height="14" viewBox="0 0 4 14" fill="none" xmlns="http://www.w3.org/2000/svg">
<path fill-rule="evenodd" clip-rule="evenodd" d="M2.00016 2.33333C2.64449 2.33333 3.16683 1.811 3.16683 1.16667C3.16683 0.522334 2.64449 0 2.00016 0C1.35583 0 0.833496 0.522334 0.833496 1.16667C0.833496 1.811 1.35583 2.33333 2.00016 2.33333ZM2.00016 8.16667C2.64449 8.16667 3.16683 7.64433 3.16683 7C3.16683 6.35567 2.64449 5.83333 2.00016 5.83333C1.35583 5.83333 0.833496 6.35567 0.833496 7C0.833496 7.64433 1.35583 8.16667 2.00016 8.16667ZM3.16683 12.8333C3.16683 13.4777 2.64449 14 2.00016 14C1.35583 14 0.833496 13.4777 0.833496 12.8333C0.833496 12.189 1.35583 11.6667 2.00016 11.6667C2.64449 11.6667 3.16683 12.189 3.16683 12.8333Z" fill="#838589"/>
</svg>
